# xmcd CD database file
#
# Track frame offsets:
#	150
#	22331
#	37851
#	60228
#	75219
#	99164
#	117943
#	135237
#	156932
#	175216
#	201825
#	224736
#	242702
#	265581
#	297000
#
# Disc length: 4423 seconds
#
# Revision: 0
# Processed by: cddbd v1.5.1PL0 Copyright (c) Steve Scherf et al.
# Submitted via: CDex 1.60beta1
#
DISCID=c211450f
DTITLE=Thee Michelle Gun Elephant - Last Heaven's Bootleg [CD2]
DYEAR=1900
DGENRE=Rock
TTITLE0=ウェスト・キャバレー・ドライブ
TTITLE1=アッシュ
TTITLE2=ジプシー・サンディー
TTITLE3=キャンディ・ハウス
TTITLE4=シトロエンの孤独
TTITLE5=ゲット・アップ・ルーシー
TTITLE6=マシュマロ・モンスター
TTITLE7=ピンヘッド・クランベリー・ダンス
TTITLE8=サニー・サイド・リバー
TTITLE9=カーテン
TTITLE10=エレクトリック・サーカス
TTITLE11=Cisco 〜想い出のサンフランシスコ (She's Gone)
TTITLE12=武蔵野エレジー
TTITLE13=Girl Friend
TTITLE14=世界の終わり
EXTD=
EXTT0=
EXTT1=
EXTT2=
EXTT3=
EXTT4=
EXTT5=
EXTT6=
EXTT7=
EXTT8=
EXTT9=
EXTT10=
EXTT11=
EXTT12=
EXTT13=
EXTT14=
PLAYORDER=
